<?xml version="1.0" encoding="utf-8"?>
<!-- Uploaded to: SVG Repo, www.svgrepo.com, Generator: SVG Repo Mixer Tools -->
<svg fill="#000000" width="800px" height="800px" viewBox="0 0 32 32" version="1.1" xmlns="http://www.w3.org/2000/svg">
<title>wifi-slash</title>
<path d="M16 21.25c-2.071 0-3.75 1.679-3.75 3.75s1.679 3.75 3.75 3.75c2.071 0 3.75-1.679 3.75-3.75v0c-0.002-2.070-1.68-3.748-3.75-3.75h-0zM16 27.25c-1.243 0-2.25-1.007-2.25-2.25s1.007-2.25 2.25-2.25c1.243 0 2.25 1.007 2.25 2.25v0c-0.002 1.242-1.008 2.248-2.25 2.25h-0zM2.523 8.535c-0.683 0.563-1.054 0.935-1.054 0.935-0.131 0.135-0.212 0.319-0.212 0.523 0 0.414 0.336 0.75 0.75 0.75 0.203 0 0.388-0.081 0.523-0.213l-0 0c0.013-0.013 0.346-0.343 0.946-0.837 0.165-0.139 0.269-0.345 0.269-0.575 0-0.414-0.336-0.75-0.75-0.75-0.18 0-0.344 0.063-0.473 0.168l0.001-0.001zM8.62 14.269c-1.194 0.695-2.226 1.471-3.159 2.351l0.008-0.008c-0.131 0.135-0.213 0.32-0.213 0.523 0 0.414 0.336 0.75 0.75 0.75 0.203 0 0.387-0.081 0.522-0.212l-0 0c0.838-0.783 1.771-1.482 2.777-2.072l0.074-0.040c0.225-0.132 0.373-0.373 0.373-0.648 0-0.414-0.336-0.75-0.75-0.75-0.141 0-0.274 0.039-0.387 0.107l0.003-0.002zM14.745 13.683c0.375-0.047 0.811-0.074 1.253-0.076h0.002c3.685 0.22 6.981 1.727 9.479 4.074l-0.008-0.007c0.136 0.136 0.323 0.22 0.53 0.22 0.414 0 0.75-0.336 0.75-0.75 0-0.207-0.084-0.395-0.22-0.531v0c-2.753-2.625-6.429-4.304-10.493-4.503l-0.038-0.002c-0.908 0.009-1.788 0.11-2.636 0.296l0.085-0.016-5.544-5.544c2.345-1.268 5.125-2.037 8.078-2.093l0.018-0c5.241 0.31 9.929 2.453 13.482 5.791l-0.011-0.011c0.135 0.131 0.32 0.212 0.523 0.212 0.414 0 0.75-0.336 0.75-0.75 0-0.203-0.081-0.388-0.213-0.523l0 0c-3.798-3.623-8.87-5.941-14.478-6.218l-0.053-0.002c-3.392 0.060-6.559 0.97-9.313 2.525l0.098-0.051-4.255-4.255c-0.135-0.131-0.32-0.212-0.523-0.212-0.414 0-0.75 0.336-0.75 0.75 0 0.203 0.081 0.388 0.213 0.523l27.999 28.001c0.136 0.136 0.324 0.22 0.531 0.22 0.415 0 0.751-0.336 0.751-0.751 0-0.207-0.084-0.395-0.22-0.531v0z"></path>
</svg>