<svg xmlns="http://www.w3.org/2000/svg" width="500" height="350" viewBox="0 0 500 350"><rect width="100%" height="100%" fill="#1e5099"/><path fill="#FFFFFF" d="M97.855 166.825v16.63h-3.1v-16.63zm3.3-.46h2.84v17.09h-2.84zm5.72 0h2.84v17.09h-2.84zm13.01 5.29h2.84v11.8h-1.74q-.56 0-.71-.52l-.2-.94q-.72.74-1.6 1.19-.87.45-2.06.45-.96 0-1.7-.32-.75-.33-1.25-.93-.51-.6-.77-1.42t-.26-1.81v-7.5h2.85v7.5q0 1.08.5 1.67t1.5.59q.73 0 1.38-.32.64-.33 1.22-.91zm13.48 1.28-.64 1.02q-.11.19-.24.26t-.32.07q-.21 0-.45-.11-.23-.12-.54-.26t-.71-.26q-.4-.11-.94-.11-.84 0-1.31.35-.48.36-.48.93 0 .38.25.64.24.26.65.46.41.19.93.35.52.15 1.05.34.54.18 1.05.42.52.23.93.6.41.36.65.86.25.51.25 1.22 0 .85-.3 1.57-.31.72-.91 1.24-.59.53-1.47.82t-2.03.29q-.61 0-1.19-.11-.58-.1-1.12-.3-.53-.2-.99-.46-.45-.26-.8-.57l.66-1.09q.12-.19.3-.3.17-.1.43-.1.27 0 .5.15.24.15.55.32.31.18.73.32.42.15 1.06.15.51 0 .87-.12t.6-.31q.24-.2.35-.46.1-.26.1-.53 0-.42-.24-.68-.25-.26-.66-.46t-.93-.35q-.52-.16-1.07-.34t-1.07-.43-.93-.63-.66-.93q-.24-.55-.24-1.33 0-.73.28-1.38.29-.66.85-1.15t1.39-.78q.84-.29 1.93-.29 1.22 0 2.22.4t1.66 1.06m6.2 10.7q-1.54 0-2.36-.86-.82-.87-.82-2.4v-6.59h-1.21q-.23 0-.39-.15t-.16-.45v-1.13l1.9-.31.59-3.22q.06-.23.22-.35.16-.13.42-.13h1.47v3.71h3.15v2.03h-3.15v6.39q0 .55.27.86.27.32.74.32.26 0 .44-.07.18-.06.31-.13.14-.07.24-.13.1-.07.21-.07.12 0 .2.07.08.06.18.19l.85 1.38q-.62.52-1.43.78-.8.26-1.67.26m7.13-11.27.18 1.34q.55-1.06 1.31-1.66.76-.61 1.79-.61.82 0 1.31.36l-.18 2.13q-.06.2-.17.29t-.29.09q-.17 0-.51-.06t-.67-.06q-.47 0-.83.14-.37.14-.67.4-.29.25-.51.62-.23.37-.42.84v7.27h-2.84v-11.8h1.66q.44 0 .61.16.18.15.23.55m12.31 8.04v-1.99q-1.23.06-2.07.22-.84.15-1.35.39-.5.24-.72.57-.22.32-.22.7 0 .74.44 1.07.45.32 1.16.32.87 0 1.51-.32.64-.31 1.25-.96m-6-6.2-.51-.9q2.03-1.87 4.9-1.87 1.03 0 1.85.34t1.38.94q.56.61.86 1.45.29.84.29 1.84v7.45h-1.29q-.4 0-.62-.12t-.34-.49l-.26-.85q-.45.4-.87.71-.43.3-.89.51t-.98.31q-.52.11-1.16.11-.74 0-1.38-.2-.63-.2-1.09-.6t-.71-1-.25-1.39q0-.45.15-.89.14-.45.48-.85t.88-.76 1.33-.62 1.84-.43q1.04-.17 2.39-.2v-.69q0-1.19-.51-1.76-.5-.57-1.46-.57-.69 0-1.14.17-.46.16-.8.36l-.63.36q-.28.16-.63.16-.29 0-.5-.15-.21-.16-.33-.37m15.37 9.43q-1.54 0-2.36-.86-.82-.87-.82-2.4v-6.59h-1.21q-.23 0-.39-.15t-.16-.45v-1.13l1.89-.31.6-3.22q.06-.23.22-.35.16-.13.41-.13h1.48v3.71h3.15v2.03h-3.15v6.39q0 .55.27.86.27.32.74.32.26 0 .44-.07.18-.06.31-.13l.24-.13q.1-.07.2-.07.13 0 .21.07.08.06.17.19l.85 1.38q-.62.52-1.42.78-.81.26-1.67.26m4.72-11.98h2.85v11.8h-2.85zm3.24-3.44q0 .37-.15.69t-.4.57q-.24.24-.58.38-.33.14-.71.14-.37 0-.7-.14-.32-.14-.57-.38-.24-.25-.38-.57-.15-.32-.15-.69 0-.38.15-.71.14-.33.38-.58.25-.24.57-.38.33-.14.7-.14.38 0 .71.14.34.14.58.38.25.25.4.58t.15.71m7.73 3.26q1.31 0 2.38.42 1.08.43 1.84 1.21.77.78 1.18 1.91.42 1.13.42 2.52 0 1.4-.42 2.53-.41 1.12-1.18 1.92-.76.79-1.84 1.22-1.07.42-2.38.42-1.33 0-2.41-.42-1.08-.43-1.84-1.22-.77-.8-1.19-1.92-.42-1.13-.42-2.53 0-1.39.42-2.52t1.19-1.91q.76-.78 1.84-1.21 1.08-.42 2.41-.42m0 9.97q1.47 0 2.18-.99.7-.99.7-2.9t-.7-2.91q-.71-1-2.18-1-1.5 0-2.22 1.01-.72 1-.72 2.9t.72 2.89q.72 1 2.22 1m10.45-9.27.2.93q.35-.36.75-.66.4-.31.84-.52t.95-.33q.5-.12 1.1-.12.97 0 1.71.32.75.33 1.25.92.5.6.76 1.42t.26 1.81v7.51h-2.84v-7.51q0-1.08-.49-1.67-.5-.6-1.51-.6-.74 0-1.38.34-.65.33-1.22.91v8.53h-2.84v-11.8h1.74q.55 0 .72.52m27.97 7.36q.25 0 .45.19l1.22 1.33q-1.02 1.25-2.49 1.92-1.48.66-3.55.66-1.85 0-3.33-.63t-2.53-1.76q-1.04-1.12-1.6-2.69-.56-1.56-.56-3.41 0-1.88.6-3.44t1.69-2.68q1.08-1.13 2.59-1.76 1.51-.62 3.33-.62t3.23.6q1.41.59 2.4 1.56l-1.04 1.44q-.09.13-.23.24-.15.1-.4.1-.17 0-.36-.1-.18-.09-.4-.24-.22-.14-.51-.31-.28-.18-.66-.32t-.88-.24-1.16-.1q-1.11 0-2.04.4-.92.39-1.59 1.15-.67.75-1.04 1.84-.36 1.08-.36 2.48t.39 2.49q.4 1.09 1.08 1.84t1.6 1.15q.92.39 1.97.39.64 0 1.15-.07t.94-.22.82-.38q.38-.24.76-.58.12-.1.24-.17.13-.06.27-.06m7.2-10.13-.59 3.46q.55-.12 1.06-.17.5-.05.98-.05 1.31 0 2.31.39t1.68 1.08 1.02 1.62q.35.92.35 1.99 0 1.33-.47 2.42t-1.29 1.87q-.83.77-1.97 1.2-1.13.42-2.46.42-.78 0-1.49-.16-.7-.16-1.31-.43-.62-.27-1.14-.62t-.94-.74l.88-1.21q.27-.39.72-.39.29 0 .59.18.3.19.68.41.39.22.91.4t1.26.18q.78 0 1.38-.25t.99-.71q.4-.45.6-1.08.2-.62.2-1.36 0-1.36-.78-2.12-.79-.77-2.33-.77-1.19 0-2.43.44l-1.77-.51 1.38-8.07h8.21v1.21q0 .61-.38.99t-1.29.38zm13.04-2.58v16.63h-3.11v-16.63zm15.01 0h2.72v16.63h-1.59q-.36 0-.61-.12t-.48-.41l-8.68-11.09q.07.76.07 1.41v10.21h-2.73v-16.63h1.62q.2 0 .34.02.15.02.26.07t.21.15q.1.09.23.26l8.72 11.13q-.04-.41-.06-.8t-.02-.72zm23.43 12.71q.26 0 .45.19l1.22 1.33q-1.01 1.25-2.49 1.92-1.48.66-3.55.66-1.85 0-3.33-.63-1.47-.63-2.52-1.76-1.05-1.12-1.61-2.69-.55-1.56-.55-3.41 0-1.88.6-3.44.59-1.56 1.68-2.68 1.09-1.13 2.59-1.76 1.51-.62 3.34-.62 1.82 0 3.22.6 1.41.59 2.4 1.56l-1.03 1.44q-.1.13-.24.24-.14.1-.4.1-.17 0-.35-.1-.19-.09-.4-.24-.22-.14-.51-.31-.29-.18-.67-.32t-.88-.24-1.15-.1q-1.12 0-2.04.4-.93.39-1.6 1.15-.66.75-1.03 1.84-.37 1.08-.37 2.48t.4 2.49q.39 1.09 1.07 1.84t1.6 1.15q.92.39 1.98.39.63 0 1.14-.07t.95-.22q.43-.15.81-.38.39-.24.77-.58.11-.1.24-.17.12-.06.26-.06m8.57-8.06q1.31 0 2.39.42 1.07.43 1.84 1.21.76.78 1.18 1.91.41 1.13.41 2.52 0 1.4-.41 2.53-.42 1.12-1.18 1.92-.77.79-1.84 1.22-1.08.42-2.39.42-1.32 0-2.4-.42-1.08-.43-1.85-1.22-.76-.8-1.18-1.92-.42-1.13-.42-2.53 0-1.39.42-2.52t1.18-1.91q.77-.78 1.85-1.21 1.08-.42 2.4-.42m0 9.97q1.47 0 2.18-.99t.71-2.9-.71-2.91-2.18-1q-1.49 0-2.21 1.01-.72 1-.72 2.9t.72 2.89q.72 1 2.21 1m8.03-15.08h2.84v17.09h-2.84zm5.71 0h2.84v17.09h-2.84zm11.92 14.04v-1.99q-1.23.06-2.07.22-.84.15-1.35.39-.5.24-.72.57-.22.32-.22.7 0 .74.44 1.07.44.32 1.16.32.87 0 1.51-.32.64-.31 1.25-.96m-6.01-6.2-.5-.9q2.03-1.87 4.9-1.87 1.03 0 1.85.34.81.34 1.38.94.56.61.85 1.45.3.84.3 1.84v7.45h-1.29q-.4 0-.62-.12t-.35-.49l-.25-.85q-.45.4-.87.71-.43.3-.89.51t-.98.31q-.52.11-1.16.11-.74 0-1.38-.2-.63-.2-1.09-.6t-.71-1q-.26-.6-.26-1.39 0-.45.15-.89.15-.45.49-.85t.88-.76 1.33-.62 1.83-.43q1.05-.17 2.4-.2v-.69q0-1.19-.51-1.76t-1.46-.57q-.69 0-1.14.17-.46.16-.8.36l-.63.36q-.28.16-.63.16-.3 0-.5-.15-.21-.16-.34-.37m14.29.9v5.29q.48.59 1.05.83t1.2.24q.66 0 1.18-.24.52-.23.89-.73t.56-1.28q.2-.77.2-1.85 0-1.95-.64-2.82-.65-.87-1.86-.87-.81 0-1.42.38-.61.37-1.16 1.05m0-8.74v6.74q.71-.75 1.58-1.19t1.98-.44q1.03 0 1.85.4t1.4 1.16q.58.75.89 1.82t.31 2.4q0 1.44-.35 2.61-.36 1.17-1.02 2.01-.66.83-1.59 1.29-.94.46-2.07.46-.56 0-1.01-.11-.44-.11-.82-.3-.38-.2-.7-.48t-.6-.63l-.13.8q-.07.3-.24.42-.16.13-.45.13h-1.87v-17.09zm15.43 5.11q1.31 0 2.39.42 1.07.43 1.84 1.21.76.78 1.17 1.91.42 1.13.42 2.52 0 1.4-.42 2.53-.41 1.12-1.17 1.92-.77.79-1.84 1.22-1.08.42-2.39.42-1.32 0-2.4-.42-1.08-.43-1.85-1.22-.76-.8-1.18-1.92-.42-1.13-.42-2.53 0-1.39.42-2.52t1.18-1.91q.77-.78 1.85-1.21 1.08-.42 2.4-.42m0 9.97q1.47 0 2.18-.99t.71-2.9-.71-2.91-2.18-1q-1.5 0-2.21 1.01-.72 1-.72 2.9t.72 2.89q.71 1 2.21 1m10.5-9.08.17 1.34q.55-1.06 1.31-1.66.76-.61 1.8-.61.81 0 1.31.36l-.19 2.13q-.05.2-.16.29t-.3.09q-.17 0-.51-.06t-.66-.06q-.47 0-.84.14t-.66.4q-.29.25-.52.62-.22.37-.42.84v7.27h-2.84v-11.8h1.67q.44 0 .61.16.17.15.23.55m12.3 8.04v-1.99q-1.23.06-2.07.22-.84.15-1.34.39-.51.24-.73.57-.21.32-.21.7 0 .74.44 1.07.44.32 1.15.32.88 0 1.52-.32.63-.31 1.24-.96m-6-6.2-.51-.9q2.04-1.87 4.9-1.87 1.04 0 1.86.34.81.34 1.38.94.56.61.85 1.45.3.84.3 1.84v7.45h-1.29q-.41 0-.62-.12-.22-.12-.35-.49l-.25-.85q-.45.4-.88.71-.42.3-.88.51t-.98.31q-.53.11-1.16.11-.75 0-1.38-.2t-1.09-.6-.72-1q-.25-.6-.25-1.39 0-.45.15-.89.15-.45.49-.85t.88-.76 1.33-.62 1.83-.43q1.05-.17 2.39-.2v-.69q0-1.19-.5-1.76-.51-.57-1.46-.57-.69 0-1.15.17-.45.16-.8.36-.34.2-.62.36t-.63.16q-.3 0-.51-.15-.2-.16-.33-.37m15.38 9.43q-1.54 0-2.37-.86-.82-.87-.82-2.4v-6.59h-1.21q-.23 0-.39-.15t-.16-.45v-1.13l1.9-.31.6-3.22q.05-.23.22-.35.16-.13.41-.13h1.47v3.71h3.15v2.03h-3.15v6.39q0 .55.27.86.27.32.74.32.27 0 .45-.07.17-.06.31-.13.13-.07.23-.13.11-.07.21-.07.13 0 .21.07.08.06.17.19l.85 1.38q-.62.52-1.43.78-.8.26-1.66.26m4.71-11.98h2.85v11.8h-2.85zm3.24-3.44q0 .37-.14.69-.15.32-.4.57-.25.24-.58.38-.34.14-.72.14-.36 0-.69-.14t-.57-.38q-.24-.25-.39-.57-.14-.32-.14-.69 0-.38.14-.71.15-.33.39-.58.24-.24.57-.38t.69-.14q.38 0 .72.14.33.14.58.38.25.25.4.58.14.33.14.71m7.73 3.26q1.31 0 2.39.42 1.07.43 1.84 1.21.76.78 1.18 1.91.41 1.13.41 2.52 0 1.4-.41 2.53-.42 1.12-1.18 1.92-.77.79-1.84 1.22-1.08.42-2.39.42-1.32 0-2.4-.42-1.08-.43-1.85-1.22-.76-.8-1.18-1.92-.42-1.13-.42-2.53 0-1.39.42-2.52t1.18-1.91q.77-.78 1.85-1.21 1.08-.42 2.4-.42m0 9.97q1.47 0 2.18-.99t.71-2.9-.71-2.91-2.18-1q-1.49 0-2.21 1.01-.72 1-.72 2.9t.72 2.89q.72 1 2.21 1m10.46-9.27.19.93q.36-.36.75-.66.4-.31.84-.52.45-.21.95-.33.51-.12 1.11-.12.96 0 1.71.32.75.33 1.25.92.5.6.76 1.42t.26 1.81v7.51h-2.84v-7.51q0-1.08-.5-1.67-.49-.6-1.51-.6-.73 0-1.38.34-.64.33-1.21.91v8.53h-2.84v-11.8h1.73q.55 0 .73.52"/></svg>